<?xml version="1.0" encoding="utf-8"?>
<!-- Generator: Adobe Illustrator 24.2.3, SVG Export Plug-In . SVG Version: 6.00 Build 0)  -->
<svg version="1.1" id="Layer_1" xmlns="http://www.w3.org/2000/svg" xmlns:xlink="http://www.w3.org/1999/xlink" x="0px" y="0px"
	 viewBox="0 0 276.1 78" style="enable-background:new 0 0 276.1 78;" xml:space="preserve">
<style type="text/css">
	.st0{fill:#231F20;}
	.st1{fill:url(#SVGID_1_);}
	.st2{fill:url(#SVGID_2_);}
	.st3{fill:url(#SVGID_3_);}
	.st4{fill:url(#SVGID_4_);}
	.st5{fill:url(#SVGID_5_);}
	.st6{fill:url(#SVGID_6_);}
</style>
<g>
	<path class="st0" d="M49.2,4.9h-8.5H12H3.6L0,75.9h6.3l1.4-30.5c0.5-10.6,0.8-22.5,1-31.4h0.2c1.4,8.4,3.5,17.6,5.9,27.6l8.3,33.8
		h5l9.1-34.5c2.6-9.8,4.7-18.7,6.5-27h0.2c-0.1,8.8,0.4,20.8,0.8,30.7l1.3,31.2h6.5l-2.8-63.2h22.1v63.2h6.7V12.7h194.2V4.9H49.2z
		 M31.6,39.3c-2.3,9-4.1,16.8-5.4,23.9H26c-1.3-7.4-3-15.2-5.2-23.9L14,12.7h24.7L31.6,39.3z"/>
	<path class="st0" d="M81.4,56c2.9,1.1,7.1,2.1,11.5,2.1c6.6,0,10.4-2.2,10.4-5.4c0-3-2.7-4.6-9.4-6.3c-8.1-1.8-13.1-4.5-13.1-9
		c0-4.9,6.4-8.6,16.1-8.6c5.1,0,8.8,0.8,11,1.5l-1.8,3.3c-1.6-0.6-4.9-1.5-9.4-1.5c-6.8,0-9.4,2.6-9.4,4.7c0,3,3,4.4,9.9,6.1
		c8.4,2.1,12.7,4.6,12.7,9.3c0,4.9-5.7,9.1-17.4,9.1c-4.8,0-10-0.9-12.7-2L81.4,56z"/>
	<path class="st0" d="M128.1,32.8H113v-3.5h36.8v3.5h-15.2V61h-6.5V32.8z"/>
	<path class="st0" d="M195.9,44.8c0,10.9-10.4,16.7-23.1,16.7c-13.1,0-22.4-6.5-22.4-16.1c0-10.1,9.8-16.6,23.1-16.6
		C187.1,28.8,195.9,35.5,195.9,44.8z M157.3,45.4c0,6.8,5.8,12.8,15.9,12.8c10.2,0,15.9-6,15.9-13.1c0-6.3-5.2-12.9-15.9-12.9
		C162.6,32.2,157.3,38.4,157.3,45.4z"/>
	<path class="st0" d="M204.2,29.8c3.2-0.4,7.9-0.7,12.3-0.7c6.9,0,11.3,0.8,14.4,2.6c2.5,1.4,3.9,3.6,3.9,6c0,4.2-4.1,6.9-9.4,8.1
		v0.1c3.8,0.8,6.1,3.1,7.3,6.4c1.6,4.4,2.8,7.5,3.8,8.7H230c-0.8-0.9-1.9-3.6-3.3-7.6c-1.5-4.4-4.1-6-10-6.2h-6V61h-6.4V29.8z
		 M210.6,44.2h6.6c6.9,0,11.2-2.4,11.2-6c0-4.1-4.6-5.9-11.4-5.9c-3.1,0-5.3,0.2-6.3,0.4V44.2z"/>
	<path class="st0" d="M269.7,46.2h-19.3v11.4h21.5V61h-28V29.4h26.8v3.4h-20.4v10h19.3V46.2z"/>
	<linearGradient id="SVGID_1_" gradientUnits="userSpaceOnUse" x1="74.4478" y1="-49.3572" x2="103.8601" y2="-9.5027">
		<stop  offset="5.865956e-02" style="stop-color:#740000"/>
		<stop  offset="0.4564" style="stop-color:#BD0000"/>
		<stop  offset="0.9883" style="stop-color:#FF0029"/>
	</linearGradient>
	<path class="st1" d="M52,2.7h-8.5H14.8H6.4l-3.6,71h6.3l1.4-30.5c0.5-10.6,0.8-22.5,1-31.4h0.2c1.4,8.4,3.5,17.6,5.9,27.6l8.3,33.8
		h5L40,38.9c2.6-9.8,4.7-18.7,6.5-27h0.2c-0.1,8.8,0.4,20.8,0.8,30.7l1.3,31.2h6.5l-2.8-63.2h22.1v63.2h6.7V10.5h194.2V2.7H52z
		 M32.9,36.8c-2.3,9-4.1,16.8-5.4,23.9h-0.2c-1.3-7.4-3-15.2-5.2-23.9l-6.8-26.6h24.7L32.9,36.8z"/>
	<linearGradient id="SVGID_2_" gradientUnits="userSpaceOnUse" x1="84.5028" y1="39.4901" x2="266.852" y2="79.8328">
		<stop  offset="4.525160e-02" style="stop-color:#ED1C24"/>
		<stop  offset="0.2809" style="stop-color:#FFFFFF"/>
		<stop  offset="0.7044" style="stop-color:#6F0029"/>
		<stop  offset="1" style="stop-color:#231F20"/>
	</linearGradient>
	<path class="st2" d="M84.1,53.2c2.9,1.1,7.1,2.1,11.5,2.1c6.6,0,10.4-2.2,10.4-5.4c0-3-2.7-4.6-9.4-6.3c-8.1-1.8-13.1-4.5-13.1-9
		c0-4.9,6.4-8.6,16.1-8.6c5.1,0,8.8,0.8,11,1.5l-1.8,3.3c-1.6-0.6-4.9-1.5-9.4-1.5c-6.8,0-9.4,2.6-9.4,4.7c0,3,3,4.4,9.9,6.1
		c8.4,2.1,12.7,4.6,12.7,9.3c0,4.9-5.7,9.1-17.4,9.1c-4.8,0-10-0.9-12.7-2L84.1,53.2z"/>
	<linearGradient id="SVGID_3_" gradientUnits="userSpaceOnUse" x1="86.9665" y1="30.2542" x2="272.5679" y2="71.3165">
		<stop  offset="4.525160e-02" style="stop-color:#ED1C24"/>
		<stop  offset="0.2898" style="stop-color:#73333D"/>
		<stop  offset="0.7044" style="stop-color:#6F0029"/>
		<stop  offset="1" style="stop-color:#231F20"/>
	</linearGradient>
	<path class="st3" d="M130.8,30h-15.1v-3.5h36.8V30h-15.2v28.2h-6.5V30z"/>
	<linearGradient id="SVGID_4_" gradientUnits="userSpaceOnUse" x1="88.3459" y1="22.9874" x2="273.603" y2="63.9735">
		<stop  offset="4.525160e-02" style="stop-color:#ED1C24"/>
		<stop  offset="0.7044" style="stop-color:#6F0029"/>
		<stop  offset="1" style="stop-color:#231F20"/>
	</linearGradient>
	<path class="st4" d="M198.6,42c0,10.9-10.4,16.7-23.1,16.7c-13.1,0-22.4-6.5-22.4-16.1c0-10.1,9.8-16.6,23.1-16.6
		C189.8,26,198.6,32.6,198.6,42z M160,42.5c0,6.8,5.8,12.8,15.9,12.8c10.2,0,15.9-6,15.9-13.1c0-6.3-5.2-12.9-15.9-12.9
		C165.3,29.4,160,35.6,160,42.5z"/>
	<linearGradient id="SVGID_5_" gradientUnits="userSpaceOnUse" x1="93.8436" y1="15.2082" x2="274.4046" y2="55.1554">
		<stop  offset="4.525160e-02" style="stop-color:#ED1C24"/>
		<stop  offset="0.2809" style="stop-color:#FFFFFF"/>
		<stop  offset="0.7044" style="stop-color:#6F0029"/>
		<stop  offset="1" style="stop-color:#231F20"/>
	</linearGradient>
	<path class="st5" d="M206.9,27c3.2-0.4,7.9-0.7,12.3-0.7c6.9,0,11.3,0.8,14.4,2.6c2.5,1.4,3.9,3.6,3.9,6c0,4.2-4.1,6.9-9.4,8.1v0.1
		c3.8,0.8,6.1,3.1,7.3,6.4c1.6,4.4,2.8,7.5,3.8,8.7h-6.6c-0.8-0.9-1.9-3.6-3.3-7.6c-1.5-4.4-4.1-6-10-6.2h-6v13.7h-6.4V27z
		 M213.4,41.4h6.6c6.9,0,11.2-2.4,11.2-6c0-4.1-4.6-5.9-11.4-5.9c-3.1,0-5.3,0.2-6.3,0.4V41.4z"/>
	<linearGradient id="SVGID_6_" gradientUnits="userSpaceOnUse" x1="97.6747" y1="6.4332" x2="277.4669" y2="46.2103">
		<stop  offset="4.525160e-02" style="stop-color:#ED1C24"/>
		<stop  offset="0.4743" style="stop-color:#B78094"/>
		<stop  offset="0.7112" style="stop-color:#6F0029"/>
		<stop  offset="1" style="stop-color:#FF1F20"/>
	</linearGradient>
	<path class="st6" d="M272.4,43.3h-19.3v11.4h21.5v3.4h-28V26.5h26.8V30h-20.4v10h19.3V43.3z"/>
</g>
</svg>
